HIERARCHY
ROOT Hips
{
  OFFSET 0.00000 0.00000 0.05000
  CHANNELS 6 Xposition Yposition Zposition Zrotation Xrotation Yrotation
  JOINT J1
  {
    OFFSET -0.03065 1.44491 0.05000
    CHANNELS 3 Zrotation Xrotation Yrotation
    JOINT J0
    {
      OFFSET 0.01581 0.59036 0.05000
      CHANNELS 3 Zrotation Xrotation Yrotation
    }
    JOINT J2
    {
      OFFSET -0.46106 0.00773 0.05000
      CHANNELS 3 Zrotation Xrotation Yrotation
      JOINT J3
      {
        OFFSET -0.18187 -0.68062 0.05000
        CHANNELS 3 Zrotation Xrotation Yrotation
        JOINT J4
        {
          OFFSET -0.04489 -0.59788 0.05000
          CHANNELS 3 Zrotation Xrotation Yrotation
        }
      }
    }
    JOINT J5
    {
      OFFSET 0.43895 -0.00024 0.05000
      CHANNELS 3 Zrotation Xrotation Yrotation
      JOINT J6
      {
        OFFSET 0.18944 -0.67310 0.05000
        CHANNELS 3 Zrotation Xrotation Yrotation
        JOINT J7
        {
          OFFSET 0.07576 -0.63575 0.05000
          CHANNELS 3 Zrotation Xrotation Yrotation
        }
      }
    }
  }
  JOINT J9
  {
    OFFSET -0.31013 -0.00768 0.05000
    CHANNELS 3 Zrotation Xrotation Yrotation
    JOINT J10
    {
      OFFSET 0.01518 -1.05887 0.05000
      CHANNELS 3 Zrotation Xrotation Yrotation
      JOINT J11
      {
        OFFSET 0.00780 -0.96134 0.05000
        CHANNELS 3 Zrotation Xrotation Yrotation
      }
    }
  }
  JOINT J12
  {
    OFFSET 0.27274 0.00729 0.05000
    CHANNELS 3 Zrotation Xrotation Yrotation
    JOINT J13
    {
      OFFSET 0.12064 -1.05932 0.05000
      CHANNELS 3 Zrotation Xrotation Yrotation
      JOINT J14
      {
        OFFSET 0.04567 -0.95305 0.05000
        CHANNELS 3 Zrotation Xrotation Yrotation
      }
    }
  }
}
MOTION
Frames: 44
Frame Time: 0.033333
2.40315 -5.17203 0.05000 0 0 0 91.22 0.00 0.00 88.47 0.00 0.00 179.04 0.00 0.00 -104.96 0.00 0.00 -94.29 0.00 0.00 -0.03 0.00 0.00 -74.28 0.00 0.00 -83.20 0.00 0.00 -178.58 0.00 0.00 -89.18 0.00 0.00 -89.54 0.00 0.00 1.53 0.00 0.00 -83.50 0.00 0.00 -87.26 0.00 0.00
2.41056 -5.16821 0.05000 0 0 0 91.36 0.00 0.00 88.84 0.00 0.00 179.27 0.00 0.00 -105.64 0.00 0.00 -96.55 0.00 0.00 -0.02 0.00 0.00 -73.91 0.00 0.00 -82.85 0.00 0.00 -178.92 0.00 0.00 -89.38 0.00 0.00 -89.66 0.00 0.00 1.14 0.00 0.00 -84.20 0.00 0.00 -87.26 0.00 0.00
2.41511 -5.16584 0.05000 0 0 0 91.45 0.00 0.00 89.07 0.00 0.00 179.41 0.00 0.00 -106.08 0.00 0.00 -99.40 0.00 0.00 -0.02 0.00 0.00 -73.68 0.00 0.00 -82.26 0.00 0.00 -179.13 0.00 0.00 -89.50 0.00 0.00 -89.73 0.00 0.00 0.89 0.00 0.00 -84.63 0.00 0.00 -87.01 0.00 0.00
2.42417 -5.16134 0.05000 0 0 0 91.45 0.00 0.00 89.52 0.00 0.00 179.96 0.00 0.00 -107.84 0.00 0.00 -104.11 0.00 0.00 -0.00 0.00 0.00 -73.23 0.00 0.00 -80.69 0.00 0.00 -179.15 0.00 0.00 -89.27 0.00 0.00 -90.26 0.00 0.00 0.01 0.00 0.00 -85.59 0.00 0.00 -87.03 0.00 0.00
2.43328 -5.15244 0.05000 0 0 0 91.46 0.00 0.00 89.97 0.00 0.00 179.98 0.00 0.00 -110.10 0.00 0.00 -111.06 0.00 0.00 0.58 0.00 0.00 -73.21 0.00 0.00 -80.28 0.00 0.00 -178.37 0.00 0.00 -89.27 0.00 0.00 -90.80 0.00 0.00 0.02 0.00 0.00 -86.58 0.00 0.00 -87.05 0.00 0.00
2.44237 -5.14789 0.05000 0 0 0 91.63 0.00 0.00 89.98 0.00 0.00 -179.48 0.00 0.00 -112.89 0.00 0.00 -121.32 0.00 0.00 0.58 0.00 0.00 -72.62 0.00 0.00 -79.82 0.00 0.00 -178.35 0.00 0.00 -89.26 0.00 0.00 -91.58 0.00 0.00 0.02 0.00 0.00 -87.31 0.00 0.00 -87.33 0.00 0.00
2.44725 -5.14786 0.05000 0 0 0 91.64 0.00 0.00 89.57 0.00 0.00 -179.46 0.00 0.00 -116.41 0.00 0.00 -134.58 0.00 0.00 0.58 0.00 0.00 -72.04 0.00 0.00 -79.74 0.00 0.00 -178.31 0.00 0.00 -89.03 0.00 0.00 -92.62 0.00 0.00 0.01 0.00 0.00 -87.80 0.00 0.00 -87.59 0.00 0.00
2.45632 -5.14798 0.05000 0 0 0 91.64 0.00 0.00 89.56 0.00 0.00 -179.46 0.00 0.00 -121.12 0.00 0.00 -150.15 0.00 0.00 0.58 0.00 0.00 -71.79 0.00 0.00 -79.67 0.00 0.00 -178.27 0.00 0.00 -88.79 0.00 0.00 -93.64 0.00 0.00 0.02 0.00 0.00 -88.28 0.00 0.00 -88.11 0.00 0.00
2.46543 -5.14803 0.05000 0 0 0 91.81 0.00 0.00 89.57 0.00 0.00 -179.46 0.00 0.00 -126.15 0.00 0.00 -169.43 0.00 0.00 0.56 0.00 0.00 -71.22 0.00 0.00 -80.39 0.00 0.00 -178.21 0.00 0.00 -89.03 0.00 0.00 -94.18 0.00 0.00 0.02 0.00 0.00 -88.53 0.00 0.00 -88.13 0.00 0.00
2.47454 -5.15242 0.05000 0 0 0 91.98 0.00 0.00 89.58 0.00 0.00 -178.92 0.00 0.00 -132.11 0.00 0.00 173.68 0.00 0.00 -0.56 0.00 0.00 -70.45 0.00 0.00 -81.19 0.00 0.00 -179.03 0.00 0.00 -89.50 0.00 0.00 -94.69 0.00 0.00 0.01 0.00 0.00 -88.53 0.00 0.00 -88.39 0.00 0.00
2.48359 -5.15693 0.05000 0 0 0 91.98 0.00 0.00 90.03 0.00 0.00 -178.92 0.00 0.00 -138.76 0.00 0.00 161.42 0.00 0.00 -0.57 0.00 0.00 -70.10 0.00 0.00 -82.05 0.00 0.00 -179.02 0.00 0.00 -89.75 0.00 0.00 -95.20 0.00 0.00 0.00 0.00 0.00 -89.00 0.00 0.00 -88.15 0.00 0.00
2.49255 -5.15715 0.05000 0 0 0 91.98 0.00 0.00 90.94 0.00 0.00 -178.40 0.00 0.00 -145.08 0.00 0.00 151.55 0.00 0.00 -1.12 0.00 0.00 -70.30 0.00 0.00 -82.53 0.00 0.00 -178.15 0.00 0.00 -90.00 0.00 0.00 -95.48 0.00 0.00 -0.79 0.00 0.00 -89.24 0.00 0.00 -87.92 0.00 0.00
2.49718 -5.15720 0.05000 0 0 0 91.98 0.00 0.00 91.41 0.00 0.00 -178.40 0.00 0.00 -150.75 0.00 0.00 143.61 0.00 0.00 -1.67 0.00 0.00 -69.86 0.00 0.00 -82.94 0.00 0.00 -178.13 0.00 0.00 -90.24 0.00 0.00 -95.49 0.00 0.00 -0.80 0.00 0.00 -89.47 0.00 0.00 -87.67 0.00 0.00
2.50170 -5.15727 0.05000 0 0 0 91.99 0.00 0.00 91.86 0.00 0.00 -178.42 0.00 0.00 -155.56 0.00 0.00 136.52 0.00 0.00 -1.69 0.00 0.00 -69.86 0.00 0.00 -82.96 0.00 0.00 -178.14 0.00 0.00 -90.24 0.00 0.00 -95.72 0.00 0.00 -0.81 0.00 0.00 -89.71 0.00 0.00 -87.66 0.00 0.00
2.50186 -5.15736 0.05000 0 0 0 91.82 0.00 0.00 92.29 0.00 0.00 -178.95 0.00 0.00 -158.61 0.00 0.00 128.22 0.00 0.00 -1.17 0.00 0.00 -69.97 0.00 0.00 -82.52 0.00 0.00 -178.15 0.00 0.00 -90.01 0.00 0.00 -95.72 0.00 0.00 -0.80 0.00 0.00 -89.94 0.00 0.00 -87.39 0.00 0.00
2.50194 -5.15723 0.05000 0 0 0 91.83 0.00 0.00 92.27 0.00 0.00 -179.48 0.00 0.00 -160.39 0.00 0.00 117.54 0.00 0.00 -1.19 0.00 0.00 -69.97 0.00 0.00 -82.07 0.00 0.00 -179.05 0.00 0.00 -90.01 0.00 0.00 -95.69 0.00 0.00 -0.80 0.00 0.00 -89.94 0.00 0.00 -87.39 0.00 0.00
2.50193 -5.15702 0.05000 0 0 0 92.00 0.00 0.00 91.81 0.00 0.00 -179.99 0.00 0.00 -161.77 0.00 0.00 105.78 0.00 0.00 -0.66 0.00 0.00 -69.89 0.00 0.00 -81.56 0.00 0.00 -179.96 0.00 0.00 -90.00 0.00 0.00 -95.64 0.00 0.00 -0.04 0.00 0.00 -89.95 0.00 0.00 -87.38 0.00 0.00
2.50183 -5.15706 0.05000 0 0 0 92.16 0.00 0.00 91.35 0.00 0.00 -180.00 0.00 0.00 -162.63 0.00 0.00 92.79 0.00 0.00 -0.68 0.00 0.00 -69.90 0.00 0.00 -81.94 0.00 0.00 -179.06 0.00 0.00 -89.76 0.00 0.00 -95.88 0.00 0.00 -0.03 0.00 0.00 -89.95 0.00 0.00 -87.38 0.00 0.00
2.50171 -5.15714 0.05000 0 0 0 92.16 0.00 0.00 91.33 0.00 0.00 180.00 0.00 0.00 -163.62 0.00 0.00 79.16 0.00 0.00 -1.23 0.00 0.00 -69.79 0.00 0.00 -82.37 0.00 0.00 -178.20 0.00 0.00 -89.76 0.00 0.00 -95.64 0.00 0.00 -0.02 0.00 0.00 -89.95 0.00 0.00 -87.37 0.00 0.00
2.50159 -5.15717 0.05000 0 0 0 92.15 0.00 0.00 90.89 0.00 0.00 179.99 0.00 0.00 -164.58 0.00 0.00 67.58 0.00 0.00 -1.79 0.00 0.00 -69.80 0.00 0.00 -82.77 0.00 0.00 -177.32 0.00 0.00 -90.00 0.00 0.00 -95.63 0.00 0.00 -0.02 0.00 0.00 -89.95 0.00 0.00 -87.38 0.00 0.00
2.50146 -5.15717 0.05000 0 0 0 92.14 0.00 0.00 90.46 0.00 0.00 179.96 0.00 0.00 -165.43 0.00 0.00 59.91 0.00 0.00 -2.33 0.00 0.00 -70.14 0.00 0.00 -83.16 0.00 0.00 -177.31 0.00 0.00 -90.23 0.00 0.00 -95.16 0.00 0.00 -0.02 0.00 0.00 -89.95 0.00 0.00 -87.38 0.00 0.00
2.50134 -5.15723 0.05000 0 0 0 91.96 0.00 0.00 90.46 0.00 0.00 179.41 0.00 0.00 -165.83 0.00 0.00 56.09 0.00 0.00 -2.88 0.00 0.00 -70.69 0.00 0.00 -83.17 0.00 0.00 -177.35 0.00 0.00 -90.23 0.00 0.00 -94.69 0.00 0.00 -0.01 0.00 0.00 -89.95 0.00 0.00 -87.39 0.00 0.00
2.50128 -5.15710 0.05000 0 0 0 91.78 0.00 0.00 90.46 0.00 0.00 178.85 0.00 0.00 -166.22 0.00 0.00 55.05 0.00 0.00 -2.90 0.00 0.00 -71.48 0.00 0.00 -82.79 0.00 0.00 -178.20 0.00 0.00 -90.47 0.00 0.00 -94.20 0.00 0.00 -0.01 0.00 0.00 -89.96 0.00 0.00 -87.39 0.00 0.00
2.50122 -5.15694 0.05000 0 0 0 91.77 0.00 0.00 90.03 0.00 0.00 178.29 0.00 0.00 -166.51 0.00 0.00 58.03 0.00 0.00 -2.88 0.00 0.00 -72.59 0.00 0.00 -82.36 0.00 0.00 -179.06 0.00 0.00 -90.46 0.00 0.00 -94.42 0.00 0.00 -0.02 0.00 0.00 -89.96 0.00 0.00 -87.40 0.00 0.00
2.50114 -5.15683 0.05000 0 0 0 91.76 0.00 0.00 90.03 0.00 0.00 177.75 0.00 0.00 -167.21 0.00 0.00 63.64 0.00 0.00 -2.85 0.00 0.00 -73.28 0.00 0.00 -82.37 0.00 0.00 -179.92 0.00 0.00 -90.23 0.00 0.00 -94.40 0.00 0.00 -0.01 0.00 0.00 -89.73 0.00 0.00 -87.40 0.00 0.00
2.50109 -5.15677 0.05000 0 0 0 91.59 0.00 0.00 90.00 0.00 0.00 177.24 0.00 0.00 -168.38 0.00 0.00 71.27 0.00 0.00 -2.86 0.00 0.00 -73.64 0.00 0.00 -82.37 0.00 0.00 -179.93 0.00 0.00 -89.99 0.00 0.00 -94.62 0.00 0.00 -0.01 0.00 0.00 -89.72 0.00 0.00 -87.40 0.00 0.00
2.50111 -5.15236 0.05000 0 0 0 91.42 0.00 0.00 89.98 0.00 0.00 177.23 0.00 0.00 -170.38 0.00 0.00 81.06 0.00 0.00 -2.87 0.00 0.00 -73.66 0.00 0.00 -82.83 0.00 0.00 -179.09 0.00 0.00 -90.23 0.00 0.00 -94.84 0.00 0.00 -0.80 0.00 0.00 -89.72 0.00 0.00 -87.40 0.00 0.00
2.50118 -5.14794 0.05000 0 0 0 91.25 0.00 0.00 89.96 0.00 0.00 177.24 0.00 0.00 -172.47 0.00 0.00 91.37 0.00 0.00 -2.87 0.00 0.00 -73.68 0.00 0.00 -83.23 0.00 0.00 -179.09 0.00 0.00 -90.46 0.00 0.00 -95.08 0.00 0.00 -1.60 0.00 0.00 -89.73 0.00 0.00 -87.41 0.00 0.00
2.50136 -5.14347 0.05000 0 0 0 91.09 0.00 0.00 89.93 0.00 0.00 177.25 0.00 0.00 -174.50 0.00 0.00 101.30 0.00 0.00 -2.90 0.00 0.00 -73.35 0.00 0.00 -83.63 0.00 0.00 -179.10 0.00 0.00 -90.70 0.00 0.00 -95.08 0.00 0.00 -1.61 0.00 0.00 -89.73 0.00 0.00 -87.41 0.00 0.00
2.50150 -5.13900 0.05000 0 0 0 90.92 0.00 0.00 89.47 0.00 0.00 177.24 0.00 0.00 -176.10 0.00 0.00 110.59 0.00 0.00 -2.92 0.00 0.00 -73.34 0.00 0.00 -83.65 0.00 0.00 -179.10 0.00 0.00 -90.94 0.00 0.00 -95.08 0.00 0.00 -1.60 0.00 0.00 -89.97 0.00 0.00 -87.40 0.00 0.00
2.50161 -5.13457 0.05000 0 0 0 90.92 0.00 0.00 89.03 0.00 0.00 177.21 0.00 0.00 -177.65 0.00 0.00 118.18 0.00 0.00 -2.90 0.00 0.00 -73.66 0.00 0.00 -83.66 0.00 0.00 -179.10 0.00 0.00 -91.16 0.00 0.00 -95.09 0.00 0.00 -1.60 0.00 0.00 -89.97 0.00 0.00 -87.40 0.00 0.00
2.50166 -5.13454 0.05000 0 0 0 90.92 0.00 0.00 88.58 0.00 0.00 177.20 0.00 0.00 -178.06 0.00 0.00 122.60 0.00 0.00 -2.88 0.00 0.00 -73.98 0.00 0.00 -83.72 0.00 0.00 180.00 0.00 0.00 -91.16 0.00 0.00 -95.08 0.00 0.00 -1.61 0.00 0.00 -89.97 0.00 0.00 -87.40 0.00 0.00
2.50169 -5.13456 0.05000 0 0 0 90.92 0.00 0.00 88.13 0.00 0.00 177.20 0.00 0.00 -178.42 0.00 0.00 125.28 0.00 0.00 -2.86 0.00 0.00 -74.30 0.00 0.00 -83.77 0.00 0.00 180.00 0.00 0.00 -91.16 0.00 0.00 -95.06 0.00 0.00 -1.61 0.00 0.00 -89.97 0.00 0.00 -87.39 0.00 0.00
2.50165 -5.13899 0.05000 0 0 0 90.91 0.00 0.00 87.70 0.00 0.00 177.18 0.00 0.00 -178.02 0.00 0.00 124.30 0.00 0.00 -2.84 0.00 0.00 -74.63 0.00 0.00 -83.82 0.00 0.00 -180.00 0.00 0.00 -91.15 0.00 0.00 -95.06 0.00 0.00 -1.61 0.00 0.00 -89.97 0.00 0.00 -87.39 0.00 0.00
2.50163 -5.14340 0.05000 0 0 0 90.91 0.00 0.00 87.71 0.00 0.00 177.19 0.00 0.00 -177.23 0.00 0.00 120.16 0.00 0.00 -2.80 0.00 0.00 -74.97 0.00 0.00 -83.87 0.00 0.00 -179.99 0.00 0.00 -91.15 0.00 0.00 -95.05 0.00 0.00 -1.60 0.00 0.00 -89.97 0.00 0.00 -87.39 0.00 0.00
2.50158 -5.14783 0.05000 0 0 0 90.90 0.00 0.00 88.14 0.00 0.00 177.19 0.00 0.00 -175.66 0.00 0.00 113.28 0.00 0.00 -2.82 0.00 0.00 -74.63 0.00 0.00 -83.91 0.00 0.00 -179.98 0.00 0.00 -90.93 0.00 0.00 -95.02 0.00 0.00 -1.60 0.00 0.00 -89.97 0.00 0.00 -87.38 0.00 0.00
2.50154 -5.15222 0.05000 0 0 0 90.90 0.00 0.00 88.59 0.00 0.00 177.20 0.00 0.00 -174.09 0.00 0.00 103.69 0.00 0.00 -2.83 0.00 0.00 -74.30 0.00 0.00 -83.86 0.00 0.00 -179.97 0.00 0.00 -90.70 0.00 0.00 -95.04 0.00 0.00 -0.82 0.00 0.00 -89.97 0.00 0.00 -87.38 0.00 0.00
2.50155 -5.15223 0.05000 0 0 0 90.90 0.00 0.00 89.03 0.00 0.00 177.19 0.00 0.00 -172.12 0.00 0.00 92.81 0.00 0.00 -2.85 0.00 0.00 -73.97 0.00 0.00 -83.81 0.00 0.00 -179.08 0.00 0.00 -90.70 0.00 0.00 -94.82 0.00 0.00 -0.82 0.00 0.00 -89.97 0.00 0.00 -87.39 0.00 0.00
2.50156 -5.14785 0.05000 0 0 0 90.90 0.00 0.00 89.48 0.00 0.00 177.15 0.00 0.00 -170.51 0.00 0.00 81.00 0.00 0.00 -2.87 0.00 0.00 -73.64 0.00 0.00 -83.76 0.00 0.00 -179.09 0.00 0.00 -90.70 0.00 0.00 -94.60 0.00 0.00 -1.60 0.00 0.00 -89.97 0.00 0.00 -87.39 0.00 0.00
2.50156 -5.14346 0.05000 0 0 0 90.91 0.00 0.00 89.91 0.00 0.00 177.14 0.00 0.00 -169.33 0.00 0.00 69.67 0.00 0.00 -2.91 0.00 0.00 -73.32 0.00 0.00 -83.70 0.00 0.00 -179.10 0.00 0.00 -90.70 0.00 0.00 -94.40 0.00 0.00 -2.38 0.00 0.00 -89.97 0.00 0.00 -87.39 0.00 0.00
2.50155 -5.13901 0.05000 0 0 0 90.91 0.00 0.00 89.48 0.00 0.00 177.11 0.00 0.00 -168.65 0.00 0.00 61.08 0.00 0.00 -2.90 0.00 0.00 -73.33 0.00 0.00 -83.69 0.00 0.00 -179.10 0.00 0.00 -90.69 0.00 0.00 -94.19 0.00 0.00 -2.39 0.00 0.00 -89.97 0.00 0.00 -87.39 0.00 0.00
2.50153 -5.13463 0.05000 0 0 0 90.91 0.00 0.00 89.04 0.00 0.00 177.07 0.00 0.00 -168.36 0.00 0.00 55.50 0.00 0.00 -2.90 0.00 0.00 -73.35 0.00 0.00 -83.73 0.00 0.00 -179.12 0.00 0.00 -90.69 0.00 0.00 -93.96 0.00 0.00 -3.16 0.00 0.00 -89.97 0.00 0.00 -87.38 0.00 0.00
2.50147 -5.13896 0.05000 0 0 0 90.90 0.00 0.00 88.59 0.00 0.00 177.05 0.00 0.00 -168.78 0.00 0.00 52.34 0.00 0.00 -2.88 0.00 0.00 -73.69 0.00 0.00 -83.73 0.00 0.00 -180.00 0.00 0.00 -90.45 0.00 0.00 -94.20 0.00 0.00 -2.39 0.00 0.00 -89.97 0.00 0.00 -87.38 0.00 0.00
2.50143 -5.14332 0.05000 0 0 0 90.89 0.00 0.00 88.14 0.00 0.00 176.49 0.00 0.00 -168.81 0.00 0.00 52.99 0.00 0.00 -2.87 0.00 0.00 -74.03 0.00 0.00 -83.74 0.00 0.00 -180.00 0.00 0.00 -89.99 0.00 0.00 -94.69 0.00 0.00 -1.62 0.00 0.00 -89.97 0.00 0.00 -87.38 0.00 0.00
